<svg width="20" height="20" viewBox="0 0 20 20" fill="none" xmlns="http://www.w3.org/2000/svg">
<path d="M10 11.0834C9.8917 11.0834 9.78336 11.0584 9.68336 11L2.32503 6.74171C2.03336 6.56671 1.92503 6.18338 2.10003 5.88338C2.27503 5.58338 2.65836 5.48338 2.95836 5.65838L10 9.73338L17 5.68338C17.3 5.50838 17.6834 5.61671 17.8584 5.90838C18.0334 6.20838 17.925 6.59171 17.6334 6.76671L10.325 11C10.2167 11.05 10.1084 11.0834 10 11.0834Z" fill="#292D32"/>
<path d="M10 18.6333C9.65833 18.6333 9.375 18.35 9.375 18.0083V10.45C9.375 10.1083 9.65833 9.82495 10 9.82495C10.3417 9.82495 10.625 10.1083 10.625 10.45V18.0083C10.625 18.35 10.3417 18.6333 10 18.6333Z" fill="#292D32"/>
<path d="M9.99997 18.9584C9.26664 18.9584 8.54164 18.8001 7.96664 18.4834L3.51664 16.0084C2.3083 15.3417 1.36664 13.7334 1.36664 12.3501V7.64175C1.36664 6.25842 2.3083 4.65842 3.51664 3.98342L7.96664 1.51675C9.10831 0.883415 10.8916 0.883415 12.0333 1.51675L16.4833 3.99175C17.6916 4.65841 18.6333 6.26675 18.6333 7.65008V12.3584C18.6333 13.7417 17.6916 15.3417 16.4833 16.0167L12.0333 18.4834C11.4583 18.8001 10.7333 18.9584 9.99997 18.9584ZM9.99997 2.29175C9.47497 2.29175 8.9583 2.40008 8.57497 2.60841L4.12497 5.08341C3.32497 5.52508 2.61664 6.72508 2.61664 7.64175V12.3501C2.61664 13.2667 3.32497 14.4667 4.12497 14.9167L8.57497 17.3917C9.3333 17.8167 10.6666 17.8167 11.425 17.3917L15.875 14.9167C16.675 14.4667 17.3833 13.2751 17.3833 12.3501V7.64175C17.3833 6.72508 16.675 5.52508 15.875 5.07508L11.425 2.60008C11.0416 2.40008 10.525 2.29175 9.99997 2.29175Z" fill="#292D32"/>
</svg>
