<svg width="20" height="20" viewBox="0 0 20 20" fill="none" xmlns="http://www.w3.org/2000/svg">
<path d="M10.0083 18.9499C9.48331 18.9499 8.96664 18.7749 8.55831 18.4249L7.24164 17.2999C7.10831 17.1833 6.77498 17.0666 6.59998 17.0666H5.14164C3.90831 17.0666 2.90831 16.0666 2.90831 14.8333V13.4083C2.90831 13.2333 2.79164 12.8999 2.68331 12.7749L1.54998 11.4416C0.866642 10.6333 0.866642 9.3666 1.54998 8.54994L2.68331 7.2166C2.79164 7.0916 2.90831 6.75827 2.90831 6.58327V5.1666C2.90831 3.93327 3.90831 2.93327 5.14164 2.93327H6.58331C6.75831 2.93327 7.08331 2.80827 7.22498 2.6916L8.54164 1.5666C9.35831 0.874935 10.6333 0.874935 11.45 1.5666L12.7666 2.6916C12.9 2.80827 13.2416 2.92493 13.4166 2.92493H14.8333C16.0666 2.92493 17.0666 3.92493 17.0666 5.15827V6.57493C17.0666 6.74993 17.1916 7.07493 17.3083 7.2166L18.4333 8.53327C19.1333 9.35827 19.125 10.6333 18.4333 11.4416L17.3083 12.7583C17.1916 12.8999 17.075 13.2249 17.075 13.3999V14.8166C17.075 16.0499 16.075 17.0499 14.8416 17.0499H13.425C13.25 17.0499 12.925 17.1749 12.775 17.2916L11.4583 18.4166C11.05 18.7749 10.525 18.9499 10.0083 18.9499ZM5.14164 4.18327C4.59998 4.18327 4.15831 4.62493 4.15831 5.1666V6.58327C4.15831 7.05827 3.94164 7.65827 3.63331 8.02494L2.49998 9.35827C2.21664 9.69993 2.21664 10.2999 2.49998 10.6333L3.62498 11.9583C3.92498 12.2999 4.14998 12.9249 4.14998 13.3999V14.8249C4.14998 15.3666 4.59164 15.8083 5.13331 15.8083H6.58331C7.04998 15.8083 7.66664 16.0333 8.03331 16.3416L9.35831 17.4749C9.69998 17.7666 10.3 17.7666 10.6416 17.4749L11.9583 16.3499C12.3333 16.0333 12.9416 15.8166 13.4083 15.8166H14.825C15.3666 15.8166 15.8083 15.3749 15.8083 14.8333V13.4166C15.8083 12.9499 16.0333 12.3416 16.3416 11.9666L17.475 10.6416C17.7666 10.2999 17.7666 9.69993 17.475 9.35827L16.35 8.0416C16.0333 7.6666 15.8166 7.05827 15.8166 6.5916V5.1666C15.8166 4.62493 15.375 4.18327 14.8333 4.18327H13.4166C12.9416 4.18327 12.325 3.95827 11.9583 3.64994L10.6333 2.5166C10.2916 2.22493 9.69998 2.22493 9.34998 2.5166L8.04164 3.64994C7.66664 3.95827 7.05831 4.18327 6.58331 4.18327H5.14164Z" fill="#292D32"/>
<path d="M10 14.0583C9.54169 14.0583 9.16669 13.6833 9.16669 13.2249C9.16669 12.7666 9.53335 12.3916 10 12.3916C10.4584 12.3916 10.8334 12.7666 10.8334 13.2249C10.8334 13.6833 10.4667 14.0583 10 14.0583Z" fill="#292D32"/>
<path d="M10 11.4332C9.65833 11.4332 9.375 11.1499 9.375 10.8082V6.7749C9.375 6.43324 9.65833 6.1499 10 6.1499C10.3417 6.1499 10.625 6.43324 10.625 6.7749V10.7999C10.625 11.1499 10.35 11.4332 10 11.4332Z" fill="#292D32"/>
</svg>
