<svg width="20" height="20" viewBox="0 0 20 20" fill="none" xmlns="http://www.w3.org/2000/svg">
<path d="M14.1581 8.0918H5.84149C5.49983 8.0918 5.21649 7.80846 5.21649 7.4668C5.21649 7.12513 5.49983 6.8418 5.84149 6.8418H14.1581C14.4998 6.8418 14.7831 7.12513 14.7831 7.4668C14.7831 7.80846 14.4998 8.0918 14.1581 8.0918Z" fill="#292D32"/>
<path d="M10 8.09164C9.65833 8.09164 9.375 7.80831 9.375 7.46664V6.06665C9.375 5.72498 9.65833 5.44165 10 5.44165C10.3417 5.44165 10.625 5.72498 10.625 6.06665V7.46664C10.625 7.80831 10.3417 8.09164 10 8.09164Z" fill="#292D32"/>
<path d="M5.83331 14.5585C5.49165 14.5585 5.20831 14.2752 5.20831 13.9335C5.20831 13.5918 5.49165 13.3085 5.83331 13.3085C8.93331 13.3085 11.4583 10.6835 11.4583 7.4502C11.4583 7.10853 11.7416 6.8252 12.0833 6.8252C12.425 6.8252 12.7083 7.10853 12.7083 7.4502C12.7083 11.3752 9.62498 14.5585 5.83331 14.5585Z" fill="#292D32"/>
<path d="M14.1669 14.5585C12.5252 14.5585 11.0002 13.7419 9.88352 12.2502C9.67519 11.9752 9.73354 11.5836 10.0085 11.3752C10.2835 11.1669 10.6752 11.2252 10.8835 11.5002C11.7669 12.6669 12.9335 13.3085 14.1752 13.3085C14.5169 13.3085 14.8002 13.5919 14.8002 13.9335C14.8002 14.2752 14.5085 14.5585 14.1669 14.5585Z" fill="#292D32"/>
<path d="M12.5 18.9584H7.50002C2.97502 18.9584 1.04169 17.0251 1.04169 12.5001V7.50008C1.04169 2.97508 2.97502 1.04175 7.50002 1.04175H12.5C17.025 1.04175 18.9584 2.97508 18.9584 7.50008V12.5001C18.9584 17.0251 17.025 18.9584 12.5 18.9584ZM7.50002 2.29175C3.65835 2.29175 2.29169 3.65841 2.29169 7.50008V12.5001C2.29169 16.3417 3.65835 17.7084 7.50002 17.7084H12.5C16.3417 17.7084 17.7084 16.3417 17.7084 12.5001V7.50008C17.7084 3.65841 16.3417 2.29175 12.5 2.29175H7.50002Z" fill="#292D32"/>
</svg>
