<svg width="20" height="20" viewBox="0 0 20 20" fill="none" xmlns="http://www.w3.org/2000/svg">
<path d="M10 19.0082C9.42502 19.0082 8.88335 18.7165 8.50002 18.2082L7.25002 16.5415C7.22502 16.5082 7.12502 16.4665 7.08335 16.4582H6.66669C3.19169 16.4582 1.04169 15.5165 1.04169 10.8332V6.6665C1.04169 2.98317 2.98335 1.0415 6.66669 1.0415H13.3334C17.0167 1.0415 18.9584 2.98317 18.9584 6.6665V10.8332C18.9584 14.5165 17.0167 16.4582 13.3334 16.4582H12.9167C12.85 16.4582 12.7917 16.4915 12.75 16.5415L11.5 18.2082C11.1167 18.7165 10.575 19.0082 10 19.0082ZM6.66669 2.2915C3.68335 2.2915 2.29169 3.68317 2.29169 6.6665V10.8332C2.29169 14.5998 3.58335 15.2082 6.66669 15.2082H7.08335C7.50835 15.2082 7.99169 15.4498 8.25002 15.7915L9.50002 17.4582C9.79169 17.8415 10.2084 17.8415 10.5 17.4582L11.75 15.7915C12.025 15.4248 12.4584 15.2082 12.9167 15.2082H13.3334C16.3167 15.2082 17.7084 13.8165 17.7084 10.8332V6.6665C17.7084 3.68317 16.3167 2.2915 13.3334 2.2915H6.66669Z" fill="#292D32"/>
<path d="M14.1666 7.2915H5.83331C5.49165 7.2915 5.20831 7.00817 5.20831 6.6665C5.20831 6.32484 5.49165 6.0415 5.83331 6.0415H14.1666C14.5083 6.0415 14.7916 6.32484 14.7916 6.6665C14.7916 7.00817 14.5083 7.2915 14.1666 7.2915Z" fill="#292D32"/>
<path d="M10.8333 11.4585H5.83331C5.49165 11.4585 5.20831 11.1752 5.20831 10.8335C5.20831 10.4918 5.49165 10.2085 5.83331 10.2085H10.8333C11.175 10.2085 11.4583 10.4918 11.4583 10.8335C11.4583 11.1752 11.175 11.4585 10.8333 11.4585Z" fill="#292D32"/>
</svg>
