<svg width="20" height="20" viewBox="0 0 20 20" fill="none" xmlns="http://www.w3.org/2000/svg">
<path d="M12.5001 18.9583H7.5001C6.4001 18.9583 5.48343 18.85 4.70843 18.6166C4.4251 18.5333 4.24177 18.2583 4.25843 17.9666C4.46677 15.475 6.99177 13.5166 10.0001 13.5166C13.0084 13.5166 15.5251 15.4666 15.7418 17.9666C15.7668 18.2666 15.5834 18.5333 15.2918 18.6166C14.5168 18.85 13.6001 18.9583 12.5001 18.9583ZM5.6001 17.55C6.1501 17.6583 6.7751 17.7083 7.5001 17.7083H12.5001C13.2251 17.7083 13.8501 17.6583 14.4001 17.55C13.9584 15.95 12.1334 14.7666 10.0001 14.7666C7.86677 14.7666 6.04177 15.95 5.6001 17.55Z" fill="#292D32"/>
<path d="M12.5 1.66675H7.50002C3.33335 1.66675 1.66669 3.33341 1.66669 7.50008V12.5001C1.66669 15.6501 2.61669 17.3751 4.88335 18.0167C5.06669 15.8501 7.29169 14.1417 10 14.1417C12.7084 14.1417 14.9334 15.8501 15.1167 18.0167C17.3834 17.3751 18.3334 15.6501 18.3334 12.5001V7.50008C18.3334 3.33341 16.6667 1.66675 12.5 1.66675ZM10 11.8084C8.35002 11.8084 7.01669 10.4668 7.01669 8.81676C7.01669 7.16676 8.35002 5.83341 10 5.83341C11.65 5.83341 12.9834 7.16676 12.9834 8.81676C12.9834 10.4668 11.65 11.8084 10 11.8084Z" stroke="#292D32" stroke-width="1.5" stroke-linecap="round" stroke-linejoin="round"/>
<path d="M9.99994 12.4332C8.00827 12.4332 6.3916 10.8083 6.3916 8.8166C6.3916 6.82493 8.00827 5.20825 9.99994 5.20825C11.9916 5.20825 13.6083 6.82493 13.6083 8.8166C13.6083 10.8083 11.9916 12.4332 9.99994 12.4332ZM9.99994 6.45825C8.69994 6.45825 7.6416 7.5166 7.6416 8.8166C7.6416 10.1249 8.69994 11.1832 9.99994 11.1832C11.2999 11.1832 12.3583 10.1249 12.3583 8.8166C12.3583 7.5166 11.2999 6.45825 9.99994 6.45825Z" fill="#292D32"/>
</svg>
