<svg width="20" height="20" viewBox="0 0 20 20" fill="none" xmlns="http://www.w3.org/2000/svg">
<path d="M10 11.8084C8.22502 11.8084 6.77502 10.3667 6.77502 8.58337C6.77502 6.80003 8.22502 5.3667 10 5.3667C11.775 5.3667 13.225 6.80837 13.225 8.5917C13.225 10.375 11.775 11.8084 10 11.8084ZM10 6.6167C8.91669 6.6167 8.02502 7.50003 8.02502 8.5917C8.02502 9.68337 8.90836 10.5667 10 10.5667C11.0917 10.5667 11.975 9.68337 11.975 8.5917C11.975 7.50003 11.0834 6.6167 10 6.6167Z" fill="#292D32"/>
<path d="M10 18.9667C8.76669 18.9667 7.52502 18.5001 6.55836 17.5751C4.10002 15.2084 1.38336 11.4334 2.40836 6.94175C3.33336 2.86675 6.89169 1.04175 10 1.04175C10 1.04175 10 1.04175 10.0084 1.04175C13.1167 1.04175 16.675 2.86675 17.6 6.95008C18.6167 11.4417 15.9 15.2084 13.4417 17.5751C12.475 18.5001 11.2334 18.9667 10 18.9667ZM10 2.29175C7.57502 2.29175 4.45836 3.58341 3.63336 7.21675C2.73336 11.1417 5.20002 14.5251 7.43336 16.6667C8.87502 18.0584 11.1334 18.0584 12.575 16.6667C14.8 14.5251 17.2667 11.1417 16.3834 7.21675C15.55 3.58341 12.425 2.29175 10 2.29175Z" fill="#292D32"/>
</svg>
