<svg width="20" height="20" viewBox="0 0 20 20" fill="none" xmlns="http://www.w3.org/2000/svg">
<path d="M12.7 18.5586H12.5916C8.89164 18.5586 7.10831 17.1002 6.79997 13.8336C6.76664 13.4919 7.01664 13.1836 7.36664 13.1502C7.69997 13.1169 8.01664 13.3752 8.04997 13.7169C8.29164 16.3336 9.52497 17.3086 12.6 17.3086H12.7083C16.1 17.3086 17.3 16.1086 17.3 12.7169V7.28356C17.3 3.89189 16.1 2.69189 12.7083 2.69189H12.6C9.50831 2.69189 8.27497 3.68356 8.04997 6.35023C8.00831 6.69189 7.71664 6.95023 7.36664 6.91689C7.01664 6.89189 6.76664 6.58356 6.79164 6.24189C7.07497 2.92523 8.86664 1.44189 12.5916 1.44189H12.7C16.7916 1.44189 18.5416 3.19189 18.5416 7.28356V12.7169C18.5416 16.8086 16.7916 18.5586 12.7 18.5586Z" fill="#292D32"/>
<path d="M12.5 10.625H3.01666C2.675 10.625 2.39166 10.3417 2.39166 10C2.39166 9.65833 2.675 9.375 3.01666 9.375H12.5C12.8417 9.375 13.125 9.65833 13.125 10C13.125 10.3417 12.8417 10.625 12.5 10.625Z" fill="#292D32"/>
<path d="M4.87497 13.4167C4.71664 13.4167 4.55831 13.3584 4.43331 13.2334L1.64164 10.4417C1.39997 10.2 1.39997 9.80003 1.64164 9.55837L4.43331 6.7667C4.67497 6.52503 5.07497 6.52503 5.31664 6.7667C5.55831 7.00837 5.55831 7.40837 5.31664 7.65003L2.96664 10L5.31664 12.35C5.55831 12.5917 5.55831 12.9917 5.31664 13.2334C5.19997 13.3584 5.0333 13.4167 4.87497 13.4167Z" fill="#292D32"/>
</svg>
