<svg width="26" height="16" viewBox="0 0 26 16" fill="none" xmlns="http://www.w3.org/2000/svg">
<g clip-path="url(#clip0_302_1086)">
<path d="M16.5149 1.71106H9.48486V14.2888H16.5149V1.71106Z" fill="#FF5F00"/>
<path d="M9.93133 8C9.93133 5.44444 11.1365 3.17778 12.9888 1.71111C11.6275 0.644447 9.90901 0 8.03434 0C3.59313 0 0 3.57778 0 8C0 12.4222 3.59313 16 8.03434 16C9.90901 16 11.6275 15.3556 12.9888 14.2889C11.1365 12.8444 9.93133 10.5556 9.93133 8Z" fill="#EB001B"/>
<path d="M26.0001 8C26.0001 12.4222 22.4069 16 17.9657 16C16.0911 16 14.3726 15.3556 13.0112 14.2889C14.8859 12.8222 16.0687 10.5556 16.0687 8C16.0687 5.44444 14.8636 3.17778 13.0112 1.71111C14.3726 0.644447 16.0911 0 17.9657 0C22.4069 0 26.0001 3.6 26.0001 8Z" fill="#F79E1B"/>
</g>
<defs>
<clipPath id="clip0_302_1086">
<rect width="26" height="16" fill="white"/>
</clipPath>
</defs>
</svg>
