<svg width="40" height="40" viewBox="0 0 40 40" fill="none" xmlns="http://www.w3.org/2000/svg">
<path d="M15.1877 13.7677L9.95172 26.2619H6.53422L3.95937 16.2919C3.80086 15.677 3.66539 15.4533 3.19008 15.1922C2.41148 14.7712 1.13078 14.3764 0 14.1304L0.0791406 13.7678H5.5775C6.27875 13.7678 6.90922 14.2355 7.06773 15.0419L8.42922 22.2733L11.792 13.7678H15.1877V13.7677ZM28.5741 22.1808C28.5893 18.8851 24.0138 18.7057 24.0466 17.2312C24.0555 16.7812 24.4821 16.3049 25.4163 16.1847C25.8802 16.1229 27.1569 16.0777 28.6038 16.742L29.1709 14.0937C28.3924 13.8112 27.3917 13.5405 26.148 13.5405C22.9535 13.5405 20.7047 15.2397 20.6857 17.6708C20.6648 19.4687 22.2902 20.4719 23.5162 21.0707C24.7751 21.6833 25.196 22.0745 25.1916 22.624C25.1834 23.4626 24.1871 23.829 23.2579 23.8455C21.6325 23.8708 20.6898 23.4063 19.9369 23.0557L19.3517 25.795C20.1059 26.1412 21.5021 26.4419 22.9471 26.4596C26.3423 26.4594 28.5634 24.7784 28.5741 22.1808ZM37.01 26.262H40L37.391 13.7678H34.6308C34.0105 13.7678 33.4877 14.1295 33.2547 14.6837L28.4077 26.262H31.8002L32.4737 24.3961H36.6207L37.01 26.262ZM33.4034 21.8352L35.1055 17.1438L36.0846 21.8352H33.4034ZM19.8066 13.7677L17.1324 26.2619H13.8997L16.5745 13.7677H19.8066Z" fill="#1A2ADF"/>
</svg>
